# xmcd
#
# Track frame offsets:
#	150
#	15030
#	31290
#	45362
#	56379
#	69347
#	85315
#	98656
#	132679
#	147067
#	165488
#	179509
#	191463
#	205995
#
# Disc length: 2900 seconds
#
# Revision: 0
# Processed by: cddbd v1.5.1PL0 Copyright (c) Steve Scherf et al.
# Submitted via: dBpowerAMP V4.0
#
DISCID=af0b520e
DTITLE=Texas Red - Nothin' Can Save Me Now
DYEAR=2003
DGENRE=Blues
TTITLE0=Money Comes Easy
TTITLE1=I Don't Like That Life
TTITLE2=Nothin' Can Save Me Now
TTITLE3=Found Love
TTITLE4=So Many Women
TTITLE5=Fattening Frogs for Snakes
TTITLE6=Car Trouble
TTITLE7=Howling Wolf
TTITLE8=Going Down To Main Street
TTITLE9=I'm Tryin'
TTITLE10=Nothin' But a Shuffle
TTITLE11=Would She Love Me
TTITLE12=Life in Texas
TTITLE13=Long Winter Nights
EXTD="Nothin but the pure and natchal blues!"
EXTT0=
EXTT1=
EXTT2=
EXTT3=
EXTT4=
EXTT5=
EXTT6=
EXTT7=
EXTT8=
EXTT9=
EXTT10=
EXTT11=
EXTT12=
EXTT13=
PLAYORDER=
